<svg width="14.666748" height="14.666656" viewBox="0 0 14.6667 14.6667" fill="none" xmlns="http://www.w3.org/2000/svg" xmlns:xlink="http://www.w3.org/1999/xlink">
	<desc>
			Created with Pixso.
	</desc>
	<defs/>
	<path id="offline_bolt" d="M6.89331 12.4667L10.0833 6.23334L7.8833 6.23334L7.8833 2.20001L4.58325 8.43332L6.89331 8.43332L6.89331 12.4667ZM7.33325 14.6667C6.31885 14.6667 5.36548 14.4742 4.47339 14.0892C3.58105 13.7042 2.80493 13.1817 2.14502 12.5217C1.48511 11.8617 0.962402 11.0856 0.577393 10.1933C0.192383 9.30112 0 8.34778 0 7.33334C0 6.31888 0.192383 5.36557 0.577393 4.47333C0.962402 3.58112 1.48511 2.80499 2.14502 2.14499C2.80493 1.48499 3.58105 0.962494 4.47339 0.577515C5.36548 0.192505 6.31885 0 7.33325 0C8.34766 0 9.30103 0.192505 10.1934 0.577515C11.0854 0.962494 11.8616 1.48499 12.5217 2.14499C13.1816 2.80499 13.7041 3.58112 14.0891 4.47333C14.4741 5.36557 14.6667 6.31888 14.6667 7.33334C14.6667 8.34778 14.4741 9.30112 14.0891 10.1933C13.7041 11.0856 13.1816 11.8617 12.5217 12.5217C11.8616 13.1817 11.0854 13.7042 10.1934 14.0892C9.30103 14.4742 8.34766 14.6667 7.33325 14.6667Z" fill="#894189" fill-opacity="1.000000" fill-rule="nonzero"/>
	<path id="offline_bolt" d="M7.2666 12L10.1667 6.33328L8.16675 6.33328L8.16675 2.66663L5.16675 8.33328L7.2666 8.33328L7.2666 12ZM7.66675 14C6.74438 14 5.87769 13.825 5.06665 13.4749C4.25562 13.125 3.55005 12.65 2.94995 12.05C2.3501 11.45 1.875 10.7444 1.5249 9.93329C1.17505 9.12219 1 8.25552 1 7.33328C1 6.41107 1.17505 5.5444 1.5249 4.73331C1.875 3.92218 2.3501 3.21661 2.94995 2.61664C3.55005 2.01663 4.25562 1.54163 5.06665 1.19162C5.87769 0.841614 6.74438 0.666626 7.66675 0.666626C8.58887 0.666626 9.45557 0.841614 10.2666 1.19162C11.0779 1.54163 11.7834 2.01663 12.3833 2.61664C12.9834 3.21661 13.4583 3.92218 13.8083 4.73331C14.1584 5.5444 14.3333 6.41107 14.3333 7.33328C14.3333 8.25552 14.1584 9.12219 13.8083 9.93329C13.4583 10.7444 12.9834 11.45 12.3833 12.05C11.7834 12.65 11.0779 13.125 10.2666 13.4749C9.45557 13.825 8.58887 14 7.66675 14Z" fill="#FFFFFF" fill-opacity="1.000000" fill-rule="nonzero"/>
</svg>
